<svg xmlns="http://www.w3.org/2000/svg" viewBox="0,0,255.99353,255.99353" width="200px" height="200px" fill-rule="nonzero">
  <g fill="none" fill-rule="nonzero" stroke="none" stroke-width="1" stroke-linecap="butt" stroke-linejoin="miter" stroke-miterlimit="10" stroke-dasharray="" stroke-dashoffset="0" style="mix-blend-mode: normal">
    <g transform="scale(2.56,2.56)">
      <path d="M13,27c-1.10457,0 -2,0.89543 -2,2c0,1.10457 0.89543,2 2,2c1.10457,0 2,-0.89543 2,-2c0,-1.10457 -0.89543,-2 -2,-2z" fill="#f4e6ff"/>
      <path d="M77,12c-0.55228,0 -1,0.44772 -1,1c0,0.55228 0.44772,1 1,1c0.55228,0 1,-0.44772 1,-1c0,-0.55228 -0.44772,-1 -1,-1z" fill="#d16fff"/>
      <path d="M50,13c-20.43454,0 -37,16.56546 -37,37c0,20.43454 16.56546,37 37,37c20.43454,0 37,-16.56546 37,-37c0,-20.43454 -16.56546,-37 -37,-37z" fill="#f4e6ff"/>
      <path d="M83,11c-2.20914,0 -4,1.79086 -4,4c0,2.20914 1.79086,4 4,4c2.20914,0 4,-1.79086 4,-4c0,-2.20914 -1.79086,-4 -4,-4z" fill="#d16fff"/>
      <path d="M87,22c-1.10457,0 -2,0.89543 -2,2c0,1.10457 0.89543,2 2,2c1.10457,0 2,-0.89543 2,-2c0,-1.10457 -0.89543,-2 -2,-2z" fill="#f4e6ff"/>
      <path d="M81,74c-1.10457,0 -2,0.89543 -2,2c0,1.10457 0.89543,2 2,2c1.10457,0 2,-0.89543 2,-2c0,-1.10457 -0.89543,-2 -2,-2zM15,59c-2.20914,0 -4,1.79086 -4,4c0,2.20914 1.79086,4 4,4c2.20914,0 4,-1.79086 4,-4c0,-2.20914 -1.79086,-4 -4,-4z" fill="#d16fff"/>
      <path d="M25,85c-1.10457,0 -2,0.89543 -2,2c0,1.10457 0.89543,2 2,2c1.10457,0 2,-0.89543 2,-2c0,-1.10457 -0.89543,-2 -2,-2z" fill="#f4e6ff"/>
      <path d="M18.5,51c-1.38071,0 -2.5,1.11929 -2.5,2.5c0,1.38071 1.11929,2.5 2.5,2.5c1.38071,0 2.5,-1.11929 2.5,-2.5c0,-1.38071 -1.11929,-2.5 -2.5,-2.5z" fill="#ffffff"/>
      <path d="M21,66c-0.55228,0 -1,0.44772 -1,1c0,0.55228 0.44772,1 1,1c0.55228,0 1,-0.44772 1,-1c0,-0.55228 -0.44772,-1 -1,-1z" fill="#d16fff"/>
      <path d="M80,33c-0.55228,0 -1,0.44772 -1,1c0,0.55228 0.44772,1 1,1c0.55228,0 1,-0.44772 1,-1c0,-0.55228 -0.44772,-1 -1,-1z" fill="#ffffff"/>
      <g>
        <path d="M65,28c3.86,0 7,3.14 7,7v30c0,3.86 -3.14,7 -7,7h-30c-3.86,0 -7,-3.14 -7,-7v-30c0,-3.86 3.14,-7 7,-7h30" fill="#cc99ff"/>
        <path d="M65,28.4c3.639,0 6.6,2.961 6.6,6.6v30c0,3.639 -2.961,6.6 -6.6,6.6h-30c-3.639,0 -6.6,-2.961 -6.6,-6.6v-30c0,-3.639 2.961,-6.6 6.6,-6.6h30M65,27h-30c-4.418,0 -8,3.582 -8,8v30c0,4.418 3.582,8 8,8h30c4.418,0 8,-3.582 8,-8v-30c0,-4.418 -3.582,-8 -8,-8z" fill="#472b29"/>
        <path d="M63,69h-26c-3.309,0 -6,-2.691 -6,-6v-26c0,-3.309 2.691,-6 6,-6h26c3.309,0 6,2.691 6,6v26c0,3.309 -2.691,6 -6,6z" fill="#fdfcee"/>
        <path d="M63,69h-26c-3.309,0 -6,-2.691 -6,-6v-26c0,-3.309 2.691,-6 6,-6h24.625c0.207,0 0.375,0.168 0.375,0.375c0,0.207 -0.168,0.375 -0.375,0.375h-24.625c-2.895,0 -5.25,2.355 -5.25,5.25v26c0,2.895 2.355,5.25 5.25,5.25h26c2.895,0 5.25,-2.355 5.25,-5.25v-14.625c0,-0.207 0.168,-0.375 0.375,-0.375c0.207,0 0.375,0.168 0.375,0.375v14.625c0,3.309 -2.691,6 -6,6zM68.625,42c-0.207,0 -0.375,-0.168 -0.375,-0.375v-1.278c0,-0.207 0.168,-0.375 0.375,-0.375c0.207,0 0.375,0.168 0.375,0.375v1.278c0,0.207 -0.168,0.375 -0.375,0.375z" fill="#472b29"/>
        <path d="M68.625,47c-0.207,0 -0.375,-0.168 -0.375,-0.375v-3.25c0,-0.207 0.168,-0.375 0.375,-0.375c0.207,0 0.375,0.168 0.375,0.375v3.25c0,0.207 -0.168,0.375 -0.375,0.375z" fill="#472b29"/>
      </g>
      <g>
        <path d="M54,37.375c-4.76346,0 -8.625,3.86154 -8.625,8.625c0,4.76346 3.86154,8.625 8.625,8.625c4.76346,0 8.625,-3.86154 8.625,-8.625c0,-4.76346 -3.86154,-8.625 -8.625,-8.625z" fill="#e1e0d8"/>
        <path d="M54,39.25c-3.72792,0 -6.75,3.02208 -6.75,6.75c0,3.72792 3.02208,6.75 6.75,6.75c3.72792,0 6.75,-3.02208 6.75,-6.75c0,-3.72792 -3.02208,-6.75 -6.75,-6.75z" fill="#a8dbdb"/>
        <path d="M46.039,53.961c-0.781,-0.781 -2.047,-0.781 -2.828,0c-0.563,0.563 -4.686,4.686 -5.25,5.25c-0.781,0.781 -0.781,2.047 0,2.828c0.781,0.781 2.047,0.781 2.828,0c0.564,-0.564 4.687,-4.687 5.25,-5.25c0.781,-0.781 0.781,-2.047 0,-2.828z" fill="#88ae45"/>
        <path d="M46.039,56.789c0.781,-0.781 0.781,-2.047 0,-2.828c-0.781,-0.781 -2.047,-0.781 -2.828,0v0z" fill="#d1dc82"/>
        <g fill="#472b29">
          <path d="M54,55c-4.962,0 -9,-4.038 -9,-9c0,-4.962 4.038,-9 9,-9c4.962,0 9,4.038 9,9c0,4.962 -4.038,9 -9,9zM54,37.75c-4.549,0 -8.25,3.701 -8.25,8.25c0,4.549 3.701,8.25 8.25,8.25c4.549,0 8.25,-3.701 8.25,-8.25c0,-4.549 -3.701,-8.25 -8.25,-8.25z"/>
          <path d="M54,53c-3.86,0 -7,-3.14 -7,-7c0,-3.86 3.14,-7 7,-7c3.86,0 7,3.14 7,7c0,3.86 -3.14,7 -7,7zM54,39.5c-3.584,0 -6.5,2.916 -6.5,6.5c0,3.584 2.916,6.5 6.5,6.5c3.584,0 6.5,-2.916 6.5,-6.5c0,-3.584 -2.916,-6.5 -6.5,-6.5z"/>
          <path transform="translate(-23.69575,48.76481) rotate(-45.001)" d="M45.801,52.484h2.43v1h-2.43z"/>
          <path d="M39.375,63c-0.634,0 -1.231,-0.247 -1.679,-0.696c-0.449,-0.448 -0.696,-1.045 -0.696,-1.679c0,-0.634 0.247,-1.231 0.696,-1.679l5.25,-5.25c0.896,-0.897 2.461,-0.897 3.358,0v0v0v0c0.449,0.449 0.696,1.045 0.696,1.679c0,0.634 -0.247,1.231 -0.696,1.679l-5.25,5.25c-0.448,0.449 -1.045,0.696 -1.679,0.696zM44.625,53.75c-0.434,0 -0.842,0.169 -1.149,0.476l-5.25,5.25c-0.307,0.307 -0.476,0.715 -0.476,1.149c0,0.434 0.169,0.842 0.476,1.149c0.614,0.614 1.684,0.614 2.298,0l5.25,-5.25c0.307,-0.307 0.476,-0.715 0.476,-1.149c0,-0.434 -0.169,-0.842 -0.476,-1.149v0c-0.307,-0.307 -0.715,-0.476 -1.149,-0.476z"/>
          <path transform="translate(-26.10794,47.82542) rotate(-45.001)" d="M44.301,53.498h0.75v3.856h-0.75z"/>
          <path d="M40.5,60c-0.053,0 -0.103,-0.034 -0.119,-0.087l-0.75,-2.375c-0.021,-0.066 0.016,-0.136 0.082,-0.157c0.068,-0.019 0.136,0.016 0.157,0.082l0.75,2.375c0.021,0.066 -0.016,0.136 -0.082,0.157c-0.013,0.003 -0.026,0.005 -0.038,0.005zM40,61c-0.053,0 -0.103,-0.034 -0.119,-0.087l-0.943,-2.986c-0.021,-0.066 0.016,-0.136 0.082,-0.157c0.068,-0.02 0.137,0.016 0.157,0.082l0.943,2.986c0.021,0.066 -0.016,0.136 -0.082,0.157c-0.013,0.003 -0.026,0.005 -0.038,0.005zM39.696,62.622c-0.053,0 -0.103,-0.034 -0.119,-0.087l-1.258,-3.985c-0.021,-0.066 0.016,-0.136 0.082,-0.157c0.069,-0.021 0.136,0.017 0.157,0.082l1.258,3.985c0.021,0.066 -0.016,0.136 -0.082,0.157c-0.013,0.003 -0.026,0.005 -0.038,0.005zM38.921,62.75c-0.053,0 -0.103,-0.034 -0.119,-0.087l-1.115,-3.531c-0.021,-0.066 0.016,-0.136 0.082,-0.157c0.07,-0.019 0.137,0.017 0.157,0.082l1.115,3.531c0.021,0.066 -0.016,0.136 -0.082,0.157c-0.013,0.003 -0.026,0.005 -0.038,0.005z"/>
        </g>
      </g>
    </g>
  </g>
</svg>
