<svg xmlns="http://www.w3.org/2000/svg" width="3000" height="3000" fill="none" viewBox="0 0 3000 3000" id="send-message">
  <path fill="#000" d="M407.127 1896.26C407.127 1916.84 402.46 1957 381.749 1957 361.039 1957 332.127 1916.84 332.127 1896.26 332.127 1875.68 348.916 1859 369.627 1859 390.338 1859 407.127 1875.68 407.127 1896.26ZM495.908 1920.39C495.908 1936.07 492.375 1966.66 476.695 1966.66 461.015 1966.66 439.127 1936.07 439.127 1920.39 439.127 1904.71 451.838 1892 467.517 1892 483.197 1892 495.908 1904.71 495.908 1920.39ZM416.908 2019.39C416.908 2035.07 413.375 2065.66 397.695 2065.66 382.015 2065.66 360.127 2035.07 360.127 2019.39 360.127 2003.71 372.838 1991 388.517 1991 404.197 1991 416.908 2003.71 416.908 2019.39ZM496.035 2019.39C496.035 2035.07 492.502 2065.66 476.822 2065.66 461.142 2065.66 439.254 2035.07 439.254 2019.39 439.254 2003.71 451.965 1991 467.644 1991 483.324 1991 496.035 2003.71 496.035 2019.39ZM575.035 2019.39C575.035 2035.07 571.502 2065.66 555.822 2065.66 540.142 2065.66 518.254 2035.07 518.254 2019.39 518.254 2003.71 530.965 1991 546.644 1991 562.324 1991 575.035 2003.71 575.035 2019.39ZM2564.91 847.391C2564.91 863.07 2561.37 893.664 2545.7 893.664 2530.02 893.664 2508.13 863.07 2508.13 847.391 2508.13 831.711 2520.84 819 2536.52 819 2552.2 819 2564.91 831.711 2564.91 847.391ZM2644.03 847.391C2644.03 863.07 2640.5 893.664 2624.82 893.664 2609.14 893.664 2587.25 863.07 2587.25 847.391 2587.25 831.711 2599.96 819 2615.64 819 2631.32 819 2644.03 831.711 2644.03 847.391ZM2723.03 847.391C2723.03 863.07 2719.5 893.664 2703.82 893.664 2688.14 893.664 2666.25 863.07 2666.25 847.391 2666.25 831.711 2678.96 819 2694.64 819 2710.32 819 2723.03 831.711 2723.03 847.391ZM417.908 2118.39C417.908 2134.07 414.375 2164.66 398.695 2164.66 383.015 2164.66 361.127 2134.07 361.127 2118.39 361.127 2102.71 373.838 2090 389.517 2090 405.197 2090 417.908 2102.71 417.908 2118.39Z"></path>
  <path stroke="#000" stroke-width="12" d="M1486.36 1451.88L1523.93 478H2687.57V1412.04L1486.36 1451.88Z"></path>
  <path stroke="#000" stroke-linecap="round" stroke-width="8" d="M2623.13 1074.5H2164.13M2401.13 793H1942.13M2623.13 1017.5H2446.13M706.127 1384H1165.13M706.127 1327H883.127"></path>
  <path fill="#000" d="M2693.58 472H1518.16V667.811H2693.58V472Z"></path>
  <path fill="#fff" d="M1610.66 619.926C1638.29 619.926 1660.68 597.531 1660.68 569.906 1660.68 542.281 1638.29 519.886 1610.66 519.886 1583.04 519.886 1560.64 542.281 1560.64 569.906 1560.64 597.531 1583.04 619.926 1610.66 619.926ZM1740.71 619.926C1768.33 619.926 1790.73 597.531 1790.73 569.906 1790.73 542.281 1768.33 519.886 1740.71 519.886 1713.08 519.886 1690.69 542.281 1690.69 569.906 1690.69 597.531 1713.08 619.926 1740.71 619.926ZM1870.76 619.926C1898.39 619.926 1920.78 597.531 1920.78 569.906 1920.78 542.281 1898.39 519.886 1870.76 519.886 1843.13 519.886 1820.74 542.281 1820.74 569.906 1820.74 597.531 1843.13 619.926 1870.76 619.926Z"></path>
  <path stroke="#000" stroke-width="12" d="M618.119 1659.1L648.707 1165H1605.31V1638.7L618.119 1659.1Z"></path>
  <path fill="#000" d="M1611.31 1159H643.067V1259.53H1611.31V1159Z"></path>
  <path fill="#fff" d="M706.127 1235C721.591 1235 734.127 1223.58 734.127 1209.5 734.127 1195.42 721.591 1184 706.127 1184 690.663 1184 678.127 1195.42 678.127 1209.5 678.127 1223.58 690.663 1235 706.127 1235ZM779.627 1235C795.367 1235 808.127 1223.58 808.127 1209.5 808.127 1195.42 795.367 1184 779.627 1184 763.887 1184 751.127 1195.42 751.127 1209.5 751.127 1223.58 763.887 1235 779.627 1235ZM853.127 1235C868.591 1235 881.127 1223.58 881.127 1209.5 881.127 1195.42 868.591 1184 853.127 1184 837.663 1184 825.127 1195.42 825.127 1209.5 825.127 1223.58 837.663 1235 853.127 1235Z"></path>
  <path stroke="#FFDC4D" stroke-width="12" d="M1686.13 750H916.127V1757H1643.13M2786.13 2511H2016.13V1504"></path>
  <path stroke="#D1EAFF" stroke-linecap="round" stroke-width="12" d="M2898.13 354.311C2841.92 516.876 2584.06 817.508 2506.39 724.09 2409.31 607.318 2446.78 273.03 2577.93 253.568 2709.07 234.106 2518.32 721.801 2354.81 687.456 2224.01 659.98 2300.31 517.259 2354.81 449.333 2335.51 540.919 2310.71 669.138 2043.13 755M936.127 2266.34C906.874 2398.46 772.665 2642.8 732.242 2566.88 681.715 2471.97 701.217 2200.28 769.474 2184.46 837.731 2168.64 738.448 2565.02 653.348 2537.1 585.268 2514.77 624.982 2398.78 653.348 2343.57 643.302 2418.01 630.395 2522.22 491.127 2592"></path>
  <path fill="#FFDC4D" d="M1344.13 2118C1572.22 2118 1757.13 1933.09 1757.13 1705C1757.13 1476.91 1572.22 1292 1344.13 1292C1116.04 1292 931.131 1476.91 931.131 1705C931.131 1933.09 1116.04 2118 1344.13 2118Z"></path>
  <path fill="#000" d="M1320.13 1737C1377.02 1737 1423.13 1690.89 1423.13 1634C1423.13 1577.11 1377.02 1531 1320.13 1531C1263.25 1531 1217.13 1577.11 1217.13 1634C1217.13 1690.89 1263.25 1737 1320.13 1737Z"></path>
  <path stroke="#fff" stroke-linecap="round" stroke-width="8" d="M1312.63 1692.5C1318.46 1693.67 1331.63 1694.5 1337.63 1688.5M1344.13 1582.83C1349.96 1581.66 1363.13 1580.83 1369.13 1586.83M1278.13 1582.83C1272.29 1581.66 1259.13 1580.83 1253.13 1586.83M1313.63 1633.5 1291.13 1664.5H1313.63"></path>
  <path fill="#000" d="M964.357 1859.5C1015.83 1995.39 1147.2 2110.5 1301.13 2110.5C1455.06 2110.5 1586.42 1995.39 1637.9 1859.5C1585.14 1817 1443.93 1732 1301.13 1732C1158.33 1732 1017.11 1817 964.357 1859.5Z"></path>
  <path stroke="#fff" stroke-linecap="round" stroke-width="8" d="M1115.63 2045L1145.63 2016.5L1137.63 2055.5"></path>
  <path fill="#fff" d="M1352.13 1634C1356.55 1634 1360.13 1630.42 1360.13 1626 1360.13 1621.58 1356.55 1618 1352.13 1618 1347.71 1618 1344.13 1621.58 1344.13 1626 1344.13 1630.42 1347.71 1634 1352.13 1634ZM1270.13 1633C1274.55 1633 1278.13 1629.42 1278.13 1625 1278.13 1620.58 1274.55 1617 1270.13 1617 1265.71 1617 1262.13 1620.58 1262.13 1625 1262.13 1629.42 1265.71 1633 1270.13 1633Z"></path>
  <path stroke="#000" stroke-width="8" d="M1336.26 251.217L1108.33 168.231L1066.99 281.785L1294.92 364.771L1336.26 251.217Z"></path>
  <path fill="#000" d="M1194.63 278L1107.63 172L1335.13 253L1194.63 278Z"></path>
  <path stroke="#000" stroke-width="8" d="M455 743.836L215.055 779.423L232.784 898.961L472.729 863.375L455 743.836Z"></path>
  <path fill="#000" d="M343.214 834.843L213.127 780.5L455.627 745L343.214 834.843Z"></path>
  <path stroke="#000" stroke-width="8" d="M485.814 203.207L355.148 165.719L336.944 229.173L467.609 266.661L485.814 203.207Z"></path>
  <path stroke="#000" stroke-width="8" d="M407.828 223.06 364.127 172.5 475.627 203.5 407.828 223.06ZM2841.41 1926.37 2522.11 1834.76 2476.08 1995.21 2795.38 2086.82 2841.41 1926.37Z"></path>
  <path stroke="#000" stroke-width="8" d="M2650.35 1977.03L2531.13 1840L2830.13 1928.5L2650.35 1977.03Z"></path>
  <path fill="#3D98E7" d="M1345.63 2592.5 1507.63 2301.5 1341.13 2189 1253.63 2329C1251.79 2345.17 1254.73 2417.6 1259.13 2478 1263.53 2538.4 1316.96 2578.83 1345.63 2592.5ZM2608.05 2622.42 2480.55 2284.01 2288.2 2342.14 2337.13 2475C2348.51 2486.63 2399.63 2516.5 2456.63 2589.5 2501.91 2647.5 2579.36 2636.03 2608.05 2622.42Z"></path>
  <path fill="#000" d="M1324.63 2058.5L1630.63 1375L2132.63 1309.5L2473.13 2174.5H2494.13C2509.63 2174.5 2536.13 2174.5 2536.13 2192C2536.13 2209.5 2555.63 2245.5 2560.63 2279.5C2565.63 2313.5 2557.13 2325.5 2536.13 2330.5C2515.13 2335.5 2287.63 2407.5 2269.63 2409C2251.63 2410.5 2234.13 2403.5 2231.63 2389.5C2229.13 2375.5 2210.63 2339.5 2204.13 2325.5C2198.93 2314.3 2206.29 2301.5 2210.63 2296.5L2223.13 2279.5L1897.13 1687L1610.63 2174.5C1630.13 2174.5 1630.63 2228.5 1610.63 2245.5C1590.63 2262.5 1593.63 2310.5 1571.13 2330.5C1553.13 2346.5 1533.29 2337.17 1525.63 2330.5C1431.13 2283.17 1239.93 2185.7 1231.13 2174.5C1220.13 2160.5 1262.13 2081 1287.63 2058.5C1308.03 2040.5 1320.79 2051 1324.63 2058.5Z"></path>
  <path stroke="#fff" stroke-linecap="round" stroke-width="8" d="M1361.13 2092C1385.63 2109.83 1444.93 2148.2 1486.13 2159 1527.33 2169.8 1568.63 2176.17 1584.13 2178M2412.63 2169.5 2245.13 1710.5M1565.13 2137 1753.63 1789 1565.13 2137ZM1486.13 2113 1565.13 1969 1486.13 2113ZM1405.63 2066.5 1534.13 1736 1405.63 2066.5ZM2245.13 2227.5 2097.63 1950 2245.13 2227.5ZM2337.63 2208.5 2267.13 2017 2337.63 2208.5ZM2249.13 2275.24C2279.23 2271.73 2348.82 2259.7 2386.43 2239.7 2424.03 2219.7 2458.7 2196.36 2471.33 2187.2"></path>
  <path fill="#3D98E7" d="M1034.65 684.795C1017.32 648.468 1006.66 663.968 1003.37 676.746C998.962 693.869 997.412 730.616 996.066 751.302L1019.13 793.5L846.035 886L968.807 1044.32C1025.77 1044.32 1094.23 974.499 1107.42 923.252C1106.79 925.685 1085.88 891.475 1078.3 879.447C1068.83 864.411 1051.98 721.121 1034.65 684.795Z"></path>
  <path fill="#F07CF2" d="M1650.13 778C1683.73 770.8 1812.46 807 1872.63 824.5C1893.79 824.5 1953.83 821 2030.63 831C2126.63 843.5 2207.63 921 2227.63 937.5C2247.63 954 2314.63 1051.5 2367.13 1078.5C2454.13 1116.5 2534.13 1227 2590.13 1279.5C2646.13 1332 2615.63 1441 2590.13 1468C2564.63 1495 2418.13 1549.5 2352.63 1571.5C2287.13 1593.5 2265.63 1642 2217.13 1633C2168.63 1624 2081.13 1513.5 2070.13 1493.5C2059.13 1473.5 2064.63 1370.5 2108.13 1381C2142.93 1389.4 2188.96 1367.83 2207.63 1356C2190.03 1356 2159.29 1284.67 2146.13 1249C2152.79 1278.5 2160.73 1337.5 2139.13 1337.5C2111.53 1335.9 1882.63 1382.33 1754.63 1397.5C1719.63 1403 1613.03 1394.2 1602.63 1381C1592.23 1367.8 1598.29 1235.5 1602.63 1171C1596.63 1194 1571.63 1247.9 1519.63 1279.5C1454.63 1319 1434.13 1381 1381.63 1397.5C1329.13 1414 1305.63 1381 1269.63 1356C1233.63 1331 1140.63 1314 1108.13 1256C1075.63 1198 977.627 1082.5 967.127 1051.5C956.627 1020.5 1077.63 861.5 1095.63 894C1110.03 920 1256.29 995.5 1327.63 1030C1362.63 1031.67 1443.43 1015.5 1486.63 937.5C1540.63 840 1608.13 787 1650.13 778Z"></path>
  <path stroke="#000" stroke-linecap="round" stroke-width="8" d="M1852.13 836C1861.96 851.167 1893.63 877.2 1941.63 860M1866.13 866C1871.29 869.667 1885.33 877 1900.13 877M2107.13 903.5C2118.63 937.667 2146.53 962.7 2140.13 1037.5 2133.73 1112.3 2140.13 1143 2140.13 1193M1714.63 798.5C1684.63 818.167 1625.23 881.7 1627.63 978.5 1619.29 989.833 1604.23 1017.5 1610.63 1037.5L1714.63 798.5ZM1602.63 1157.5C1592.13 1142 1609.43 1099.1 1610.63 1083.5L1602.63 1157.5ZM2215.13 1352C2227.63 1338.17 2263.53 1306.5 2307.13 1290.5 2361.63 1270.5 2391.63 1275 2398.63 1268M1316.63 1047C1308.96 1049 1291.03 1062.3 1280.63 1099.5 1270.23 1136.7 1255.96 1166 1250.13 1176M1321.74 1068.22C1319.06 1070.05 1313.86 1079.63 1314.56 1103.33 1315.26 1127.03 1313.49 1146.18 1312.51 1152.78M2439.13 1255.12C2437.88 1252.12 2429.53 1245.1 2406.18 1241 2382.83 1236.9 2364.44 1231.29 2358.17 1229M1679.63 1292 1740.63 1317.5M2029.59 941.42 2063.66 998.08M2422.22 1443 2456.29 1499.66M2359.45 1308.33 2421.06 1332.33M2207.8 1257.1 2268.06 1229.9M2186.58 1032.03 2251.94 1041.97M2334.62 1092 2309.96 1153.34M1420.62 1273 1395.96 1334.34M1487.65 1149.09 1526.94 1202.26M1463.5 1037.51 1418.2 1085.67M1183.42 1167.96 1138.13 1216.11M1217.53 1028.53 1152.02 1019.54M1563.9 900 1562.18 966.093M1035.9 1011 1034.18 1077.09M2237.7 1494.52 2284.81 1448.14M1757.13 1206.25 1804.24 1159.87M1926.13 1317.25 1973.24 1270.87M1657.35 1005.81 1716.02 1036.3M2027.25 1138 2085.92 1168.49M1881.25 998 1939.92 1028.49M1777.65 834.244 1781.51 900.247"></path>
  <path fill="#000" d="M1802.13 691C1819.8 691 1834.13 676.673 1834.13 659C1834.13 641.327 1819.8 627 1802.13 627C1784.46 627 1770.13 641.327 1770.13 659C1770.13 676.673 1784.46 691 1802.13 691Z"></path>
  <path fill="#000" d="M1802.13 750C1819.8 750 1834.13 735.673 1834.13 718C1834.13 700.327 1819.8 686 1802.13 686C1784.46 686 1770.13 700.327 1770.13 718C1770.13 735.673 1784.46 750 1802.13 750Z"></path>
  <path fill="#000" d="M1770.13 718C1787.8 718 1802.13 703.673 1802.13 686C1802.13 668.327 1787.8 654 1770.13 654C1752.46 654 1738.13 668.327 1738.13 686C1738.13 703.673 1752.46 718 1770.13 718Z"></path>
  <path fill="#3D98E7" d="M2053.13 681.5C2053.13 755.23 1993.36 815 1919.63 815C1795.63 827 1786.13 755.23 1786.13 681.5C1786.13 607.77 1845.9 548 1919.63 548C1993.36 548 2053.13 607.77 2053.13 681.5Z"></path>
  <path fill="#F07CF2" d="M1919.63 548C1866.88 548 1821.28 578.591 1799.59 623L2051.86 663C2042.85 598.026 1987.08 548 1919.63 548Z"></path>
  <path stroke="#000" stroke-linecap="round" stroke-width="12" d="M2046.63 662L1700.13 614"></path>
  <path fill="#3D98E7" d="M1983.13 826.5L1980.63 787L1857.13 781.5L1850.13 818.5C1882.13 884.5 1970.13 850.5 1983.13 826.5Z"></path>
  <path fill="#000" d="M2045.13 718C2063.91 718 2079.13 702.554 2079.13 683.5C2079.13 664.446 2063.91 649 2045.13 649C2026.35 649 2011.13 664.446 2011.13 683.5C2011.13 702.554 2026.35 718 2045.13 718Z"></path>
  <path fill="#000" d="M2079.63 718C2089.29 718 2097.13 709.941 2097.13 700C2097.13 690.059 2089.29 682 2079.63 682C2069.96 682 2062.13 690.059 2062.13 700C2062.13 709.941 2069.96 718 2079.63 718Z"></path>
  <path fill="#000" d="M2093.13 730.5C2093.13 752.868 2075.13 774.18 2052.63 777.5 2022.13 782 1996.13 751.368 1996.13 729 1996.13 706.632 2030.26 690 2052.63 690 2074.99 690 2093.13 708.132 2093.13 730.5ZM1801.88 661.853C1820.49 664.301 1837.6 650.972 1840.09 632.081L1772.67 623.214C1770.18 642.105 1783.26 659.404 1801.88 661.853Z"></path>
  <path fill="#000" d="M1845.58 657.248C1855.22 657.965 1863.63 650.509 1864.37 640.596L1829.46 638C1828.72 647.914 1835.94 656.531 1845.58 657.248Z"></path>
  <path fill="#0E76D0" d="M2006.43 737.019C2019.86 741.43 2035.08 731.791 2040.44 715.489C2045.8 699.186 2039.26 682.394 2025.83 677.982C2012.41 673.57 1997.18 683.209 1991.82 699.512C1986.46 715.814 1993 732.607 2006.43 737.019Z"></path>
  <path stroke="#000" stroke-linecap="round" stroke-width="8" d="M1998.63 707.5C2003.13 700 2015.63 691 2027.13 693"></path>
  <path stroke="#000" stroke-linecap="round" stroke-width="8" d="M2019.79 694.14C2021.15 696.228 2024 703.103 2024.44 707.788"></path>
  <path fill="#0E76D0" d="M1860.13 740.009L1888.75 697.714L1896.98 746.422L1860.13 740.009Z"></path>
  <path stroke="#000" stroke-linecap="round" stroke-width="8" d="M1885.73 700.765 1859.85 737.558 1894.53 742.926M1880.63 768.5C1885.13 768.667 1896.43 767.9 1905.63 763.5M1917.13 663.021C1921.63 662.854 1932.93 663.621 1942.13 668.021M1846.13 665.021C1841.63 664.854 1830.33 665.621 1821.13 670.021M1888.13 811C1899.13 813 1918.63 814.5 1933.63 802"></path>
  <path fill="#000" d="M1841.63 703C1846.33 703 1850.13 699.194 1850.13 694.5 1850.13 689.806 1846.33 686 1841.63 686 1836.94 686 1833.13 689.806 1833.13 694.5 1833.13 699.194 1836.94 703 1841.63 703ZM1925.63 703C1930.33 703 1934.13 699.194 1934.13 694.5 1934.13 689.806 1930.33 686 1925.63 686 1920.94 686 1917.13 689.806 1917.13 694.5 1917.13 699.194 1920.94 703 1925.63 703Z"></path>
  <path fill="#0E76D0" d="M1937.06 750.875C1946.41 750.875 1954 743.292 1954 733.938 1954 724.584 1946.41 717 1937.06 717 1927.71 717 1920.12 724.584 1920.12 733.938 1920.12 743.292 1927.71 750.875 1937.06 750.875ZM1828.06 741.875C1837.41 741.875 1845 734.292 1845 724.938 1845 715.584 1837.41 708 1828.06 708 1818.71 708 1811.12 715.584 1811.12 724.938 1811.12 734.292 1818.71 741.875 1828.06 741.875Z"></path>
  <path stroke="#000" stroke-width="12" d="M1270.63 2509.5C1287.43 2557.1 1327.63 2582.67 1345.63 2589.5L1307.13 2657.5C1294.96 2687.67 1263.33 2747.3 1234.13 2744.5L832.127 2299C835.627 2266 936.627 2208.5 962.627 2208.5C988.627 2208.5 1037.63 2259 1065.13 2279.5C1087.13 2295.9 1157.96 2328.33 1190.63 2342.5C1193.63 2305.83 1203.73 2233.2 1220.13 2236C1240.63 2239.5 1258.63 2349.5 1258.63 2363C1258.63 2376.5 1249.63 2450 1270.63 2509.5Z"></path>
  <path stroke="#000" stroke-width="12" d="M879.627 2249.5C881.127 2267.5 888.727 2307.7 907.127 2324.5 957.162 2370.18 1024.63 2490.26 1085.63 2506.5 1122.13 2514.5 1168.13 2622.5 1194.13 2641.5 1220.13 2660.5 1260.13 2690 1292.13 2688M916.127 2231C924.294 2256.67 948.127 2314.5 978.127 2340.5 1015.63 2373 1043.13 2404.5 1059.13 2415 1075.13 2425.5 1160.13 2377.5 1162.13 2330.5"></path>
  <path stroke="#000" stroke-width="12" d="M1341.13 2590C1323.96 2581.33 1279.13 2559.3 1259.13 2564.5 1239.13 2569.7 1196.13 2608.33 1181.63 2628.5M2497.22 2618.28C2541.31 2642.84 2588.37 2635.4 2606.39 2628.6L2622.53 2705.06C2633.38 2735.73 2649.14 2801.37 2625.4 2818.59H2024.63C2005.41 2791.54 2047.62 2613.71 2067.11 2596.5 2086.6 2579.29 2156.76 2584.72 2190.94 2581.88 2218.28 2579.61 2292.85 2557.04 2326.71 2546.04 2304.69 2516.57 2264.19 2455.44 2278.34 2446.68 2296.02 2435.74 2382.32 2506.28 2391.26 2516.4 2400.19 2526.52 2442.09 2587.57 2497.22 2618.28Z"></path>
  <path stroke="#000" stroke-width="12" d="M2032.03 2682.17C2045.07 2694.67 2077.37 2719.78 2102.28 2720.19 2133.42 2720.71 2221.85 2751.36 2240.93 2757.86 2260.01 2764.36 2292.21 2770.61 2356.55 2738.48 2389.21 2720.31 2495.17 2770.83 2527.24 2767.86 2559.3 2764.89 2608.81 2760.53 2631.48 2737.85M2047.14 2644.15C2070.25 2657.98 2126.4 2685.56 2166.1 2685.19 2215.72 2684.73 2257.18 2690.14 2276.12 2687.43 2295.07 2684.71 2327.02 2592.47 2297.41 2555.91"></path>
  <path stroke="#000" stroke-width="12" d="M2603.34 2631.96C2584.74 2636.82 2536.55 2649.98 2525 2667.12C2513.45 2684.25 2506.78 2741.67 2509.26 2766.39"></path>
  <path stroke="#000" stroke-width="8" d="M767.295 928.373L568.926 516.059L802.421 390.418L1019.01 792.928L767.295 928.373Z"></path>
  <path fill="#000" d="M656.627 519L634.627 476.5L730.127 425L751.127 464.5L656.627 519Z"></path>
  <path fill="#D1EAFF" d="M874.595 633.382C782.59 589.82 737.228 662.568 726.047 704.388C748.41 713.512 797.254 728.461 829.36 708.439C861.466 688.418 874.197 649.491 874.595 633.382Z"></path>
  <path fill="#000" d="M811.668 706.257C832.652 702.832 846.887 683.044 843.463 662.06C840.038 641.076 820.25 626.841 799.266 630.266C778.282 633.69 764.047 653.478 767.472 674.462C770.896 695.446 790.684 709.681 811.668 706.257Z"></path>
  <path stroke="#000" stroke-linecap="round" stroke-width="12" d="M725.043 691.247 697.428 681.383M738.771 662.048 713.431 647.291M764.958 634.39 744.382 613.497M798.979 616.974 791.236 588.69M842.928 615.374 846.741 586.299M873.266 625.233 885.244 598.467"></path>
  <path fill="#000" d="M1802.13 691C1819.8 691 1834.13 676.673 1834.13 659C1834.13 641.327 1819.8 627 1802.13 627C1784.46 627 1770.13 641.327 1770.13 659C1770.13 676.673 1784.46 691 1802.13 691Z"></path>
  <path fill="#000" d="M1802.13 750C1819.8 750 1834.13 735.673 1834.13 718C1834.13 700.327 1819.8 686 1802.13 686C1784.46 686 1770.13 700.327 1770.13 718C1770.13 735.673 1784.46 750 1802.13 750Z"></path>
  <path fill="#000" d="M1770.13 718C1787.8 718 1802.13 703.673 1802.13 686C1802.13 668.327 1787.8 654 1770.13 654C1752.46 654 1738.13 668.327 1738.13 686C1738.13 703.673 1752.46 718 1770.13 718Z"></path>
  <path fill="#3D98E7" d="M2053.13 681.5C2053.13 755.23 1993.36 815 1919.63 815C1795.63 827 1786.13 755.23 1786.13 681.5C1786.13 607.77 1845.9 548 1919.63 548C1993.36 548 2053.13 607.77 2053.13 681.5Z"></path>
  <path fill="#F07CF2" d="M1919.63 548C1866.88 548 1821.28 578.591 1799.59 623L2051.86 663C2042.85 598.026 1987.08 548 1919.63 548Z"></path>
  <path stroke="#000" stroke-linecap="round" stroke-width="12" d="M2046.63 662L1700.13 614"></path>
  <path fill="#3D98E7" d="M1983.13 826.5L1980.63 787L1857.13 781.5L1850.13 818.5C1882.13 884.5 1970.13 850.5 1983.13 826.5Z"></path>
  <path fill="#000" d="M2045.13 718C2063.91 718 2079.13 702.554 2079.13 683.5C2079.13 664.446 2063.91 649 2045.13 649C2026.35 649 2011.13 664.446 2011.13 683.5C2011.13 702.554 2026.35 718 2045.13 718Z"></path>
  <path fill="#000" d="M2079.63 718C2089.29 718 2097.13 709.941 2097.13 700C2097.13 690.059 2089.29 682 2079.63 682C2069.96 682 2062.13 690.059 2062.13 700C2062.13 709.941 2069.96 718 2079.63 718Z"></path>
  <path fill="#000" d="M2093.13 730.5C2093.13 752.868 2075.13 774.18 2052.63 777.5 2022.13 782 1996.13 751.368 1996.13 729 1996.13 706.632 2030.26 690 2052.63 690 2074.99 690 2093.13 708.132 2093.13 730.5ZM1801.88 661.853C1820.49 664.301 1837.6 650.972 1840.09 632.081L1772.67 623.214C1770.18 642.105 1783.26 659.404 1801.88 661.853Z"></path>
  <path fill="#000" d="M1845.58 657.248C1855.22 657.965 1863.63 650.509 1864.37 640.596L1829.46 638C1828.72 647.914 1835.94 656.531 1845.58 657.248Z"></path>
  <path fill="#0E76D0" d="M2006.43 737.019C2019.86 741.43 2035.08 731.791 2040.44 715.489C2045.8 699.186 2039.26 682.394 2025.83 677.982C2012.41 673.57 1997.18 683.209 1991.82 699.512C1986.46 715.814 1993 732.607 2006.43 737.019Z"></path>
  <path stroke="#000" stroke-linecap="round" stroke-width="8" d="M1998.63 707.5C2003.13 700 2015.63 691 2027.13 693"></path>
  <path stroke="#000" stroke-linecap="round" stroke-width="8" d="M2019.79 694.14C2021.15 696.228 2024 703.103 2024.44 707.788"></path>
  <path fill="#0E76D0" d="M1860.13 740.009L1888.75 697.714L1896.98 746.422L1860.13 740.009Z"></path>
  <path stroke="#000" stroke-linecap="round" stroke-width="8" d="M1885.73 700.765 1859.85 737.558 1894.53 742.926M1880.63 768.5C1885.13 768.667 1896.43 767.9 1905.63 763.5M1917.13 663.021C1921.63 662.854 1932.93 663.621 1942.13 668.021M1846.13 665.021C1841.63 664.854 1830.33 665.621 1821.13 670.021M1888.13 811C1899.13 813 1918.63 814.5 1933.63 802"></path>
  <path fill="#000" d="M1841.63 703C1846.33 703 1850.13 699.194 1850.13 694.5 1850.13 689.806 1846.33 686 1841.63 686 1836.94 686 1833.13 689.806 1833.13 694.5 1833.13 699.194 1836.94 703 1841.63 703ZM1925.63 703C1930.33 703 1934.13 699.194 1934.13 694.5 1934.13 689.806 1930.33 686 1925.63 686 1920.94 686 1917.13 689.806 1917.13 694.5 1917.13 699.194 1920.94 703 1925.63 703Z"></path>
  <path fill="#0E76D0" d="M1937.06 750.875C1946.41 750.875 1954 743.292 1954 733.938 1954 724.584 1946.41 717 1937.06 717 1927.71 717 1920.12 724.584 1920.12 733.938 1920.12 743.292 1927.71 750.875 1937.06 750.875ZM1828.06 741.875C1837.41 741.875 1845 734.292 1845 724.938 1845 715.584 1837.41 708 1828.06 708 1818.71 708 1811.12 715.584 1811.12 724.938 1811.12 734.292 1818.71 741.875 1828.06 741.875Z"></path>
</svg>